<mxfile host="65bd71144e">
    <diagram id="UKBe16CePEppyjFFfAoj" name="Page-1">
        <mxGraphModel dx="715" dy="607" grid="1" gridSize="10" guides="1" tooltips="1" connect="1" arrows="1" fold="1" page="1" pageScale="1" pageWidth="827" pageHeight="1169" math="0" shadow="0">
            <root>
                <mxCell id="0"/>
                <mxCell id="1" parent="0"/>
                <mxCell id="2" value="AddressBook" style="swimlane;fontStyle=0;childLayout=stackLayout;horizontal=1;startSize=26;fillColor=none;horizontalStack=0;resizeParent=1;resizeParentMax=0;resizeLast=0;collapsible=1;marginBottom=0;" vertex="1" parent="1">
                    <mxGeometry x="170" y="260" width="300" height="130" as="geometry"/>
                </mxCell>
                <mxCell id="3" value="+ add_record()&#10;+ remove_record()&#10;+ find_by_name()&#10;+ find_by_phone()&#10;+ search()&#10;+ iterator()" style="text;strokeColor=none;fillColor=none;align=left;verticalAlign=top;spacingLeft=4;spacingRight=4;overflow=hidden;rotatable=0;points=[[0,0.5],[1,0.5]];portConstraint=eastwest;" vertex="1" parent="2">
                    <mxGeometry y="26" width="300" height="104" as="geometry"/>
                </mxCell>
                <mxCell id="6" value="UserDict" style="swimlane;" vertex="1" parent="1">
                    <mxGeometry x="170" y="100" width="300" height="70" as="geometry"/>
                </mxCell>
                <mxCell id="7" value="" style="triangle;whiteSpace=wrap;html=1;direction=north;strokeWidth=3;" vertex="1" parent="1">
                    <mxGeometry x="310" y="170" width="20" height="20" as="geometry"/>
                </mxCell>
                <mxCell id="8" value="" style="endArrow=none;html=1;exitX=0.5;exitY=0;exitDx=0;exitDy=0;entryX=0;entryY=0.5;entryDx=0;entryDy=0;strokeWidth=3;" edge="1" parent="1" source="2" target="7">
                    <mxGeometry width="50" height="50" relative="1" as="geometry">
                        <mxPoint x="290" y="230" as="sourcePoint"/>
                        <mxPoint x="340" y="180" as="targetPoint"/>
                    </mxGeometry>
                </mxCell>
                <mxCell id="9" value="address_book" style="swimlane;strokeWidth=3;" vertex="1" parent="1">
                    <mxGeometry x="70" y="10" width="490" height="450" as="geometry"/>
                </mxCell>
            </root>
        </mxGraphModel>
    </diagram>
</mxfile>